PathFileType  4	(X/Y/Z) C:\Users\antoi\Documents\MyRepositories\mobilecap\ResultsAnalysis
DataRate	CameraRate	NumFrames	NumMarkers	Units	OrigDataRate	OrigDataStartFrame	OrigNumFrames
100.0	100.0	4	51	mm	100.0	168	1341
Frame#	Time	r_knee			r_shank_antsup			r_ankle			r_calc			r_5meta			r_toe			L_knee			L_shank_antsup			L_ankle			L_calc			L_5meta			L_toe			r_sh2			r_sh3			r_sh4			L_sh2			L_sh3			r_thigh1			r_thigh2			r_thigh3			r_thigh4			r_thigh5			L_thigh1			L_thigh2			L_thigh3			L_thigh4			r.ASIS			r.PSIS			L.ASIS			L.PSIS			C7			R_Shoulder			L_Shoulder			R_Sternum			L_Sternum			R_humerus			R_elbow_med			R_elbow_lat			R_forearm			R_wrist_radius			R_wrist_ulna			L_humerus			L_elbow_med			L_elbow_lat			L_forearm			L_wrist_radius			L_wrist_ulna			R_HJC			L_HJC			R_HJC_reg			L_HJC_reg			
		X1	Y1	Z1	X2	Y2	Z2	X3	Y3	Z3	X4	Y4	Z4	X5	Y5	Z5	X6	Y6	Z6	X7	Y7	Z7	X8	Y8	Z8	X9	Y9	Z9	X10	Y10	Z10	X11	Y11	Z11	X12	Y12	Z12	X13	Y13	Z13	X14	Y14	Z14	X15	Y15	Z15	X16	Y16	Z16	X17	Y17	Z17	X18	Y18	Z18	X19	Y19	Z19	X20	Y20	Z20	X21	Y21	Z21	X22	Y22	Z22	X23	Y23	Z23	X24	Y24	Z24	X25	Y25	Z25	X26	Y26	Z26	X27	Y27	Z27	X28	Y28	Z28	X29	Y29	Z29	X30	Y30	Z30	X31	Y31	Z31	X32	Y32	Z32	X33	Y33	Z33	X34	Y34	Z34	X35	Y35	Z35	X36	Y36	Z36	X37	Y37	Z37	X38	Y38	Z38	X39	Y39	Z39	X40	Y40	Z40	X41	Y41	Z41	X42	Y42	Z42	X43	Y43	Z43	X44	Y44	Z44	X45	Y45	Z45	X46	Y46	Z46	X47	Y47	Z47	X48	Y48	Z48	X49	Y49	Z49	X50	Y50	Z50	X51	Y51	Z51	

168	1.67000000	-84.86419	441.84235	-321.29282	-36.90818	387.67913	-331.53717	-252.68589	94.33849	-357.34208	-317.52542	57.15714	-407.91552	-141.25999	40.65210	-312.29787	-97.44486	60.90508	-365.31938	-127.08823	466.01804	-747.20551	-102.79212	390.84303	-784.61097	-249.49592	102.67789	-791.87409	-310.26051	57.86645	-748.47236	-135.20399	41.75568	-833.78908	-90.51848	61.06783	-780.93841	-85.70723	283.13381	-354.61404	-101.30655	406.42083	-294.15953	-144.95076	298.44681	-295.85322	-182.30569	428.34161	-769.51756	-229.68089	310.98090	-781.49844	-270.59824	676.03392	-363.60321	-172.40942	624.27112	-355.47783	-166.74190	594.80492	-294.41675	-301.89827	630.19717	-267.66599	-208.30841	566.10037	-269.12345	-340.96124	673.01971	-656.39895	-242.74591	590.53299	-715.87685	-415.58860	587.08345	-657.68296	-308.79431	501.83752	-685.51816	-303.30292	723.33427	-344.60198	-469.08678	804.79608	-419.91734	-309.17054	683.45747	-565.01774	-468.80626	797.31936	-513.37104	-122.62705	1123.58765	-480.92596	-47.29577	1052.03594	-323.34375	-64.83760	1052.13021	-626.20395	-49.19590	991.29131	-456.21122	-58.52444	984.05656	-491.86807	-49.45680	872.54036	-180.79768	-94.62810	754.25328	-173.44579	-55.22857	795.02472	-124.75080	63.44803	830.69149	-191.09051	124.08185	871.65081	-259.92194	146.67115	836.10284	-244.15316	-104.26715	875.47527	-765.63832	-130.61685	744.67475	-750.02877	-121.91549	777.56003	-815.70451	10.44600	828.59301	-772.60759	82.41802	883.45173	-723.13702	102.71250	843.18903	-726.41152	-398.63976	666.26390	-361.41493	-412.83321	650.12423	-550.87107	-391.97459	666.66468	-370.62578	-391.53247	654.87073	-518.04004	
169	1.68000000	-85.31495	442.13901	-321.01931	-37.38204	388.04539	-331.16584	-252.69691	94.29686	-357.33811	-317.51911	57.14480	-407.92082	-141.25214	40.62664	-312.24033	-97.45029	60.91726	-365.28833	-127.41256	466.35932	-747.35095	-103.02002	391.03899	-784.64577	-249.49741	102.67395	-791.89800	-310.27700	57.88632	-748.54443	-135.20607	41.75224	-833.80209	-90.51759	61.05204	-780.96320	-86.02455	283.44106	-354.34685	-101.74306	406.66054	-293.95884	-145.22883	298.50596	-295.80612	-182.58057	428.50324	-769.62651	-229.95610	311.09305	-781.35715	-269.68242	677.58413	-363.30604	-171.83773	625.16996	-355.18873	-166.40071	595.69711	-294.14054	-301.24678	631.60320	-267.83555	-208.19393	567.13074	-268.92107	-340.34213	674.26556	-656.19307	-242.58255	591.21507	-715.84490	-415.24870	588.77339	-657.45932	-308.89211	502.83585	-685.16099	-302.55980	725.23703	-344.60877	-468.31277	807.00819	-419.92834	-308.47374	685.41508	-565.23052	-468.04102	799.25109	-513.43154	-123.03273	1126.77487	-481.26920	-47.96673	1055.46602	-323.26970	-65.22134	1055.14055	-626.28279	-49.34378	994.78560	-456.12449	-58.58788	987.28883	-491.68422	-50.72565	876.04035	-180.36171	-96.38502	757.81259	-173.11790	-56.64212	797.91347	-125.03947	62.01181	833.76310	-190.48444	122.94599	874.43035	-259.27754	145.35019	838.77763	-243.28070	-105.22127	878.21964	-765.41799	-131.79678	747.55124	-749.50919	-123.08828	780.35947	-815.39757	9.54857	830.92353	-772.30015	81.79904	885.92172	-723.35204	101.86335	845.39462	-726.28407	-397.93621	668.27242	-361.48600	-412.18652	652.14530	-550.93901	-391.38766	669.01310	-370.56998	-390.95973	656.77555	-518.07646	
170	1.69000000	-85.75003	442.45062	-320.80595	-37.82756	388.33738	-330.89486	-252.70202	94.30824	-357.31928	-317.51609	57.13286	-407.92264	-141.23770	40.61487	-312.20719	-97.46867	60.94454	-365.26260	-127.72187	466.76849	-747.53912	-103.23077	391.14748	-784.53845	-249.50256	102.67086	-791.90450	-310.28611	57.87080	-748.57416	-135.20418	41.75754	-833.80885	-90.52006	61.04270	-780.97444	-86.38452	283.69125	-354.21602	-102.12582	406.99779	-293.66774	-145.57552	298.69725	-295.64830	-182.89627	428.62778	-769.59378	-230.20654	311.24166	-781.26660	-268.51428	679.64474	-362.53107	-171.25717	626.10873	-354.95685	-165.94336	596.62883	-293.79619	-300.69983	633.32806	-267.63891	-207.99664	568.22435	-268.72232	-339.61398	675.65210	-656.20468	-242.30090	592.09489	-715.93724	-414.81561	590.45927	-657.27631	-309.13531	503.61209	-684.38622	-301.71816	727.49310	-343.96060	-467.51564	809.25683	-419.98461	-307.75559	687.37039	-565.31513	-467.06867	801.41875	-513.49447	-123.53930	1130.05115	-481.62736	-48.82908	1059.09620	-323.30402	-65.62017	1058.40582	-626.43007	-49.42100	998.29855	-456.08395	-58.64316	990.74878	-491.55534	-51.98935	879.79031	-179.83249	-98.16761	761.48194	-172.94565	-58.25935	801.16957	-125.01898	60.55986	836.84759	-189.97092	121.75818	877.33673	-258.56895	144.03335	841.54830	-242.41479	-106.15871	881.06895	-765.16988	-133.12106	750.50438	-749.13998	-124.28710	783.20350	-814.90060	8.58825	833.34765	-771.92356	81.10435	888.47774	-723.45305	101.00675	847.54982	-725.98231	-397.24864	670.55747	-361.28066	-411.38435	654.21811	-550.72375	-390.86915	670.99751	-370.14467	-390.16175	658.59169	-518.15170	
171	1.70000000	-86.19043	442.77178	-320.64709	-38.23604	388.58600	-330.73691	-252.72121	94.32906	-357.30118	-317.51698	57.12429	-407.92132	-141.23313	40.60832	-312.20578	-97.47849	60.97081	-365.25981	-128.03260	467.11318	-747.64636	-103.46545	391.22710	-784.38908	-249.51821	102.67031	-791.90337	-310.25816	57.84184	-748.53859	-135.20371	41.75541	-833.80900	-90.52623	61.04353	-780.96759	-86.78359	283.94216	-354.17137	-102.49270	407.24443	-293.51658	-145.95140	298.89025	-295.48045	-183.20354	428.69000	-769.45723	-230.08924	311.57587	-781.84311	-267.12911	682.03318	-361.48494	-170.65565	627.02330	-354.83567	-165.45331	597.50160	-293.56096	-300.26685	635.36273	-267.23152	-207.68302	569.40646	-268.47425	-338.79835	677.10461	-656.19986	-241.86781	593.10587	-715.98400	-414.33024	592.13211	-656.93302	-309.37196	504.35693	-683.47541	-300.76541	729.98475	-343.02382	-466.70606	811.54573	-420.02568	-306.97564	689.42487	-565.42339	-466.13380	803.72216	-513.56957	-124.11667	1133.36691	-481.61855	-49.74606	1062.69729	-323.06131	-66.03970	1061.84249	-626.60405	-49.61147	1001.70543	-455.95015	-58.75984	994.51739	-491.53615	-53.46494	883.56669	-179.42389	-99.97674	765.29039	-172.82699	-60.10355	804.92775	-124.66557	59.04416	840.05518	-189.52095	120.51032	880.36953	-257.89253	142.67093	844.42242	-241.70827	-107.02727	884.09292	-764.92932	-134.53273	753.55066	-748.81469	-125.51815	786.11283	-814.28769	7.54483	835.93182	-771.71084	80.34920	891.22125	-723.70321	100.09329	849.77536	-725.68400	-396.48559	673.00282	-360.97582	-410.48138	656.36948	-550.40380	-390.22356	672.88223	-369.45374	-389.31426	660.44232	-518.19298	
